<svg id="visual" viewBox="0 0 2048 1080" width="2048" height="1080" xmlns="http://www.w3.org/2000/svg" xmlns:xlink="http://www.w3.org/1999/xlink" version="1.1"><rect x="0" y="0" width="2048" height="1080" fill="#140021"></rect><path d="M1148 1080L1097 1080L1097 945L1076 945L1076 810L1081 810L1081 675L1126 675L1126 540L1108 540L1108 405L1075 405L1075 270L1069 270L1069 135L1187 135L1187 0L2048 0L2048 135L2048 135L2048 270L2048 270L2048 405L2048 405L2048 540L2048 540L2048 675L2048 675L2048 810L2048 810L2048 945L2048 945L2048 1080L2048 1080Z" fill="#9900ff"></path><path d="M1301 1080L1243 1080L1243 945L1316 945L1316 810L1252 810L1252 675L1236 675L1236 540L1275 540L1275 405L1225 405L1225 270L1297 270L1297 135L1248 135L1248 0L2048 0L2048 135L2048 135L2048 270L2048 270L2048 405L2048 405L2048 540L2048 540L2048 675L2048 675L2048 810L2048 810L2048 945L2048 945L2048 1080L2048 1080Z" fill="#8b00e8"></path><path d="M1458 1080L1411 1080L1411 945L1376 945L1376 810L1440 810L1440 675L1407 675L1407 540L1447 540L1447 405L1384 405L1384 270L1467 270L1467 135L1409 135L1409 0L2048 0L2048 135L2048 135L2048 270L2048 270L2048 405L2048 405L2048 540L2048 540L2048 675L2048 675L2048 810L2048 810L2048 945L2048 945L2048 1080L2048 1080Z" fill="#7e00d1"></path><path d="M1547 1080L1557 1080L1557 945L1548 945L1548 810L1619 810L1619 675L1598 675L1598 540L1582 540L1582 405L1603 405L1603 270L1559 270L1559 135L1616 135L1616 0L2048 0L2048 135L2048 135L2048 270L2048 270L2048 405L2048 405L2048 540L2048 540L2048 675L2048 675L2048 810L2048 810L2048 945L2048 945L2048 1080L2048 1080Z" fill="#7000bb"></path><path d="M1699 1080L1743 1080L1743 945L1700 945L1700 810L1737 810L1737 675L1752 675L1752 540L1701 540L1701 405L1700 405L1700 270L1697 270L1697 135L1684 135L1684 0L2048 0L2048 135L2048 135L2048 270L2048 270L2048 405L2048 405L2048 540L2048 540L2048 675L2048 675L2048 810L2048 810L2048 945L2048 945L2048 1080L2048 1080Z" fill="#6300a5"></path><path d="M1891 1080L1857 1080L1857 945L1839 945L1839 810L1897 810L1897 675L1839 675L1839 540L1890 540L1890 405L1869 405L1869 270L1848 270L1848 135L1875 135L1875 0L2048 0L2048 135L2048 135L2048 270L2048 270L2048 405L2048 405L2048 540L2048 540L2048 675L2048 675L2048 810L2048 810L2048 945L2048 945L2048 1080L2048 1080Z" fill="#560090"></path></svg>